<svg xmlns="http://www.w3.org/2000/svg" viewBox="0 0 32 32" aria-hidden="true">
  <path
    fill="#F4F8FF"
    d="M19.11 17.31c-.27-.14-1.58-.78-1.82-.87-.24-.09-.42-.14-.6.14-.18.27-.69.87-.85 1.04-.16.18-.31.2-.58.07-.27-.14-1.15-.42-2.18-1.33-.81-.72-1.36-1.6-1.52-1.87-.16-.27-.02-.41.12-.55.12-.12.27-.31.4-.47.13-.16.18-.27.27-.45.09-.18.04-.34-.02-.47-.07-.14-.6-1.45-.82-1.98-.22-.53-.45-.46-.6-.47h-.51c-.18 0-.47.07-.71.34-.24.27-.91.89-.91 2.18 0 1.29.93 2.53 1.06 2.71.13.18 1.82 2.78 4.42 3.9.62.27 1.11.43 1.49.55.63.2 1.21.17 1.67.1.51-.08 1.58-.65 1.8-1.28.22-.63.22-1.17.16-1.28-.07-.11-.24-.18-.51-.31Z"
  />
  <path
    fill="#F4F8FF"
    d="M16.01 4.6c-6.24 0-11.31 5.06-11.31 11.29 0 1.99.52 3.93 1.5 5.63L4.6 27.4l6.05-1.58a11.32 11.32 0 0 0 5.36 1.36h.01c6.23 0 11.31-5.07 11.31-11.3 0-3.02-1.18-5.85-3.32-7.98a11.2 11.2 0 0 0-8-3.3Zm0 20.66h-.01a9.4 9.4 0 0 1-4.79-1.31l-.34-.2-3.59.94.96-3.49-.22-.36a9.35 9.35 0 0 1-1.43-4.95c0-5.17 4.22-9.38 9.42-9.38 2.51 0 4.87.98 6.65 2.75a9.3 9.3 0 0 1 2.76 6.63c0 5.18-4.23 9.38-9.41 9.38Z"
  />
</svg>
